<?xml version="1.0" encoding="utf-8"?>
<!-- Generator: Adobe Illustrator 25.4.1, SVG Export Plug-In . SVG Version: 6.00 Build 0)  -->
<svg version="1.1" id="Layer_1" xmlns="http://www.w3.org/2000/svg" xmlns:xlink="http://www.w3.org/1999/xlink" x="0px" y="0px"
	 viewBox="0 0 1032.2 411.1" style="enable-background:new 0 0 1032.2 411.1;" xml:space="preserve">
<style type="text/css">
	.st0{fill:#FFFFFF;}
	.st1{fill:#E95420;}
</style>
<path class="st0" d="M349.2,381c-10.9,0-20.1-1.7-27.7-5c-7.2-3-13.5-7.7-18.5-13.7c-4.8-6-8.3-13-10.3-20.4
	c-2.2-8.2-3.2-16.6-3.2-25.1V214h16v100.7c-0.2,7.9,0.9,15.7,3.2,23.2c1.8,5.9,4.8,11.4,8.8,16.1c3.7,4.2,8.4,7.5,13.7,9.4
	c11.6,4.1,24.3,4.1,35.9,0c5.3-2,10-5.2,13.7-9.4c4-4.7,7-10.2,8.8-16.1c2.3-7.5,3.3-15.4,3.2-23.2V214h16v102.8
	c0.1,8.5-1,16.9-3.2,25.1c-2,7.4-5.4,14.4-10.3,20.4c-5,6-11.3,10.7-18.5,13.7C369.3,379.3,360,381,349.2,381z"/>
<path class="st0" d="M461.5,262.8c2.7-2,7-4.2,12.9-6.5c6.7-2.4,13.8-3.6,20.9-3.4c8.1-0.1,16.1,1.5,23.5,4.7
	c6.7,3,12.6,7.6,17.3,13.2c4.9,6,8.5,12.8,10.7,20.2c2.5,8.3,3.7,16.9,3.7,25.6c0.1,9.1-1.4,18.1-4.4,26.6
	c-2.7,7.4-6.8,14.2-12.3,20c-5.3,5.5-11.7,9.9-18.8,12.7c-7.8,3-16.1,4.5-24.4,4.4c-10.9,0-19.8-0.7-26.9-2.1
	c-5.9-1.1-11.7-2.6-17.5-4.5V197.2l15.3-2.8L461.5,262.8z M461.5,363c3.4,1,7,1.8,10.5,2.2c6.1,0.8,12.2,1.2,18.3,1.1
	c13.2,0,23.8-4.3,31.8-12.9c8-8.6,12-20.9,12-36.9c0-6.5-0.7-12.9-2.1-19.2c-1.2-5.7-3.6-11-6.8-15.8c-3.2-4.5-7.4-8.2-12.4-10.7
	c-5.1-2.7-11.4-4-19-4c-3.5,0-7,0.3-10.4,1.1c-3.1,0.7-6.2,1.6-9.2,2.7c-4.6,1.7-8.9,4.1-12.7,7.1L461.5,363z"/>
<path class="st0" d="M674,373.2c-4.6,1.3-10.7,2.7-18.4,4.2c-9.3,1.7-18.8,2.5-28.3,2.4c-9.1,0-16.8-1.3-22.9-4
	c-5.8-2.4-11-6.3-14.9-11.3c-4-5.2-6.7-11.3-8.1-17.7c-1.7-7.5-2.5-15.2-2.4-22.9v-68.4h15.3v63.5c-0.1,7.4,0.5,14.7,1.9,21.9
	c1.3,6,3.3,10.8,6.1,14.5c2.8,3.7,6.6,6.5,11,8c5.3,1.8,10.8,2.6,16.4,2.5c6.3,0.1,12.6-0.3,18.9-1.2c5.3-0.8,8.7-1.5,10.2-2.1
	V255.5H674V373.2z"/>
<path class="st0" d="M710.2,259.7c4.6-1.3,10.7-2.7,18.4-4.2c9.4-1.7,18.9-2.5,28.4-2.4c9.3,0,17,1.3,23.2,4
	c5.9,2.4,10.9,6.4,14.8,11.4c3.9,5.3,6.5,11.4,7.9,17.8c1.6,7.5,2.4,15.2,2.4,22.9v68.2H790v-63.2c0.1-7.3-0.5-14.7-1.8-21.9
	c-0.9-5.2-2.9-10.2-5.9-14.6c-2.7-3.7-6.5-6.6-10.8-8.1c-4.5-1.6-10.1-2.5-16.9-2.5c-6.3-0.1-12.5,0.3-18.8,1.2
	c-5.3,0.8-8.7,1.5-10.3,2.1v107.1h-15.4V259.7z"/>
<path class="st0" d="M854.9,255.5h48.6v13h-48.6v64.9c-0.1,5.7,0.5,11.3,1.8,16.9c0.9,3.7,2.6,7.1,5.1,10c2.1,2.3,4.9,4,8,4.7
	c3.4,0.8,6.9,1.2,10.4,1.2c6.4,0,11.6-0.7,15.6-2.2c3.2-1.1,6.2-2.5,9.2-4.1l3.8,12.7c-2.2,1.4-6.1,3-11.6,4.8
	c-5.8,1.8-11.8,2.7-17.9,2.7c-7.5,0-13.9-1-19-3c-4.9-1.8-9.1-4.9-12.3-9c-3.3-4.4-5.5-9.6-6.5-15c-1.4-7-2-14.1-1.9-21.2V219.6
	l15.3-2.8L854.9,255.5z"/>
<path class="st0" d="M1022.4,373.2c-4.6,1.3-10.7,2.7-18.4,4.2c-9.3,1.7-18.8,2.5-28.3,2.4c-9.1,0-16.7-1.3-22.9-4
	c-5.8-2.4-11-6.3-14.9-11.3c-3.9-5.2-6.7-11.3-8.1-17.7c-1.7-7.5-2.5-15.2-2.5-22.9v-68.4h15.3V319c-0.1,7.4,0.5,14.7,1.9,21.9
	c1.3,6,3.3,10.8,6.1,14.5c2.8,3.7,6.6,6.5,11,8c5.3,1.8,10.8,2.6,16.3,2.5c6.3,0.1,12.6-0.3,18.9-1.2c5.3-0.8,8.7-1.5,10.1-2.1
	V255.5h15.3L1022.4,373.2z"/>
<path class="st0" d="M319.5,172.1c-4.4,0-8.7-0.8-12.7-2.4c-3.9-1.6-7.4-4-10.2-7.1c-3-3.4-5.4-7.3-6.8-11.6
	c-1.7-5.1-2.6-10.4-2.5-15.8c-0.1-5.4,0.8-10.7,2.7-15.7c1.6-4.3,4.1-8.2,7.2-11.6c2.9-3.1,6.5-5.5,10.4-7.1
	c3.9-1.6,8.1-2.4,12.3-2.4c2.4,0,4.8,0.2,7.2,0.5c1.9,0.3,3.8,0.7,5.7,1.3c1.4,0.4,2.8,0.9,4.2,1.5c0.9,0.4,1.8,0.8,2.6,1.4l-2.2,6
	c-2.1-1.2-4.2-2.2-6.5-3c-7-2.2-14.5-1.9-21.3,0.8c-3.2,1.4-6.1,3.6-8.3,6.3c-2.3,2.9-4,6.1-5,9.7c-1.2,4-1.7,8.2-1.7,12.4
	c-0.1,4.3,0.5,8.5,1.7,12.7c1,3.5,2.7,6.8,4.9,9.6c2.2,2.6,4.9,4.7,8,6.1c3.4,1.5,7.1,2.2,10.9,2.1c3.8,0.1,7.6-0.4,11.3-1.3
	c2.4-0.6,4.7-1.5,6.9-2.6l1.9,5.9c-0.8,0.5-1.6,0.9-2.4,1.2c-3.4,1.2-6.9,2.1-10.5,2.5C324.6,172,322,172.1,319.5,172.1z"/>
<path class="st0" d="M367.6,116.7c3-0.1,6,0.4,8.8,1.5c2.2,0.9,4.3,2.3,5.9,4.1c1.5,1.8,2.6,3.9,3.3,6.2c0.7,2.5,1,5.1,1,7.8v33.2
	c-1,0.3-2,0.5-3,0.7c-1.3,0.2-2.8,0.5-4.5,0.8s-3.6,0.5-5.6,0.7s-4.2,0.2-6.4,0.2c-2.6,0-5.2-0.3-7.7-0.9c-2.2-0.5-4.3-1.5-6.1-2.9
	c-1.7-1.3-3.1-3.1-4.1-5.1c-1-2.4-1.6-5-1.5-7.6c-0.1-2.5,0.5-5.1,1.6-7.3c1.1-2,2.7-3.7,4.6-5c2.1-1.4,4.5-2.4,7-2.9
	c2.9-0.6,5.9-0.9,8.9-0.9c1,0,2,0.1,3,0.2c1.1,0.1,2.1,0.2,3.1,0.4s1.8,0.3,2.5,0.5c0.5,0.1,1,0.3,1.5,0.5v-3.3
	c0-1.8-0.1-3.6-0.4-5.4c-0.3-1.7-0.9-3.3-1.8-4.7c-1-1.4-2.3-2.6-3.9-3.4c-2.1-0.9-4.3-1.4-6.6-1.3c-2.9-0.1-5.8,0.2-8.7,0.8
	c-1.9,0.6-3.3,1-4.2,1.3l-0.9-5.8c1.7-0.7,3.5-1.2,5.4-1.5C361.8,116.9,364.7,116.7,367.6,116.7z M368.2,165.8
	c2.6,0,4.8-0.1,6.8-0.2c1.7-0.1,3.3-0.4,5-0.7v-18.6c-1.2-0.5-2.3-0.8-3.6-1.1c-2.2-0.4-4.5-0.6-6.7-0.6c-1.7,0-3.4,0.1-5.1,0.4
	c-1.7,0.2-3.4,0.7-4.9,1.5c-1.5,0.8-2.7,1.9-3.7,3.2c-1,1.6-1.5,3.5-1.4,5.4c0,1.7,0.3,3.4,1,5c0.6,1.3,1.6,2.4,2.8,3.3
	c1.3,0.9,2.8,1.5,4.3,1.8C364.5,165.7,366.4,165.8,368.2,165.8z"/>
<path class="st0" d="M401.9,119.8c2-0.5,4.6-1.1,8-1.8c4-0.7,8.1-1.1,12.2-1c3.4-0.1,6.8,0.5,10,1.7c2.5,1,4.8,2.8,6.4,4.9
	c1.7,2.3,2.8,4.9,3.4,7.7c0.7,3.2,1,6.6,1,9.9v29.4h-6.6v-27.3c0-3.2-0.2-6.3-0.8-9.5c-0.4-2.3-1.2-4.4-2.5-6.3
	c-1.2-1.6-2.8-2.8-4.7-3.5c-2.3-0.8-4.8-1.1-7.3-1.1c-2.7,0-5.4,0.1-8.1,0.5c-1.5,0.2-3,0.5-4.4,0.9v46.3h-6.6L401.9,119.8z"/>
<path class="st0" d="M503.5,144.3c0,3.8-0.6,7.7-1.8,11.3c-1.1,3.2-2.8,6.1-5,8.7c-2.1,2.4-4.7,4.2-7.6,5.6
	c-6.2,2.7-13.2,2.7-19.4,0c-2.9-1.3-5.5-3.2-7.6-5.6c-2.2-2.5-3.9-5.5-5-8.7c-2.4-7.4-2.4-15.3,0-22.6c1.1-3.2,2.8-6.2,5-8.7
	c2.1-2.4,4.7-4.3,7.6-5.6c6.2-2.6,13.2-2.6,19.4,0c2.9,1.3,5.5,3.2,7.6,5.6c2.2,2.5,3.9,5.5,5,8.7
	C502.9,136.7,503.5,140.5,503.5,144.3z M496.5,144.3c0-6.6-1.5-11.8-4.6-15.7c-5.7-6.9-15.8-7.8-22.7-2.2c-0.8,0.7-1.5,1.4-2.2,2.2
	c-3.1,3.9-4.6,9.1-4.6,15.7c0,6.6,1.5,11.8,4.5,15.7c5.8,6.9,16,7.8,22.9,2c0.7-0.6,1.4-1.3,2-2
	C494.9,156.1,496.5,150.9,496.5,144.3L496.5,144.3z"/>
<path class="st0" d="M516.5,119.8c2-0.5,4.6-1.1,8-1.8c4-0.7,8.1-1.1,12.2-1c3.4-0.1,6.8,0.5,10,1.7c2.5,1,4.8,2.8,6.4,4.9
	c1.7,2.3,2.8,4.9,3.4,7.7c0.7,3.2,1,6.6,1,9.9v29.4h-6.6v-27.3c0-3.2-0.2-6.3-0.8-9.5c-0.4-2.3-1.2-4.4-2.5-6.3
	c-1.2-1.6-2.8-2.8-4.7-3.5c-2.3-0.8-4.8-1.1-7.3-1.1c-2.7,0-5.4,0.1-8.1,0.5c-1.5,0.2-3,0.5-4.4,0.9v46.3h-6.6L516.5,119.8z"/>
<path class="st0" d="M580.8,102c0.1,1.4-0.5,2.7-1.4,3.7c-1.9,1.9-5,1.9-6.9,0c-1.9-2.1-1.9-5.3,0-7.4c1.9-1.8,5-1.8,6.9,0
	C580.3,99.3,580.8,100.6,580.8,102z M579.2,170.6h-6.6v-52.7h6.6V170.6z"/>
<path class="st0" d="M616.9,171.7c-3.7,0.1-7.4-0.6-10.8-1.9c-3-1.2-5.7-3.1-7.8-5.6c-2.2-2.5-3.8-5.5-4.7-8.7
	c-2.2-7.3-2.2-15.1,0-22.5c1-3.2,2.7-6.2,4.8-8.8c2.1-2.4,4.7-4.4,7.6-5.7c3.2-1.4,6.6-2,10.1-2c2.7,0,5.4,0.2,8,0.7
	c2,0.3,3.9,0.9,5.8,1.8l-1.7,5.8c-1.5-0.7-3-1.3-4.6-1.6c-2.2-0.5-4.5-0.7-6.8-0.6c-5.8,0-10.3,1.9-13.3,5.7c-3,3.8-4.5,9.1-4.5,16
	c0,2.9,0.3,5.8,1,8.6c0.6,2.5,1.7,4.7,3.3,6.7c1.6,1.9,3.6,3.4,5.9,4.4c2.8,1.1,5.8,1.7,8.8,1.6c2.4,0.1,4.9-0.3,7.2-1
	c1.5-0.4,2.9-1,4.2-1.7l1.4,5.7c-1.8,0.9-3.8,1.6-5.8,2C622.4,171.4,619.6,171.7,616.9,171.7z"/>
<path class="st0" d="M657.8,116.7c3-0.1,6,0.4,8.8,1.5c2.2,0.9,4.3,2.3,5.9,4.1c1.5,1.8,2.6,3.9,3.3,6.2c0.7,2.5,1,5.1,1,7.8v33.2
	c-1,0.3-2,0.5-3,0.7c-1.3,0.2-2.8,0.5-4.5,0.8s-3.6,0.5-5.7,0.7s-4.2,0.2-6.4,0.2c-2.6,0-5.2-0.3-7.7-0.9c-2.2-0.5-4.3-1.5-6.1-2.9
	c-1.7-1.3-3.1-3.1-4.1-5.1c-1-2.4-1.5-5-1.5-7.6c-0.1-2.5,0.5-5.1,1.6-7.3c1.1-2,2.7-3.7,4.6-5c2.1-1.4,4.5-2.4,7-2.9
	c2.9-0.7,5.9-1,8.9-1c1,0,2,0.1,3,0.2c1,0.1,2.1,0.2,3,0.4s1.8,0.3,2.5,0.5c0.5,0.1,1,0.3,1.5,0.5v-3.3c0-1.8-0.1-3.6-0.4-5.4
	c-0.3-1.7-0.9-3.3-1.8-4.7c-1-1.4-2.3-2.6-3.9-3.4c-2.1-0.9-4.3-1.4-6.6-1.3c-2.9-0.1-5.8,0.2-8.7,0.8c-1.9,0.6-3.3,1-4.2,1.3
	l-0.9-5.8c1.7-0.7,3.5-1.2,5.3-1.5C651.9,116.9,654.8,116.7,657.8,116.7z M658.4,165.8c2.6,0,4.8-0.1,6.8-0.2
	c1.7-0.1,3.3-0.4,4.9-0.7v-18.6c-1.2-0.5-2.3-0.8-3.6-1.1c-2.2-0.4-4.5-0.6-6.7-0.6c-1.7,0-3.4,0.1-5.1,0.4
	c-1.7,0.2-3.4,0.7-4.9,1.5c-1.5,0.8-2.7,1.9-3.7,3.2c-1,1.6-1.5,3.5-1.4,5.4c0,1.7,0.3,3.4,1,5c0.6,1.3,1.6,2.4,2.8,3.3
	c1.3,0.9,2.8,1.5,4.3,1.8C654.6,165.7,656.5,165.8,658.4,165.8z"/>
<path class="st0" d="M705.3,171.5c-2,0-4-0.3-5.9-0.9c-1.6-0.4-3-1.2-4.2-2.3c-1.2-1.1-2-2.5-2.5-4.1c-0.6-2-0.9-4.1-0.9-6.3V92.8
	l6.6-1.2v66.2c0,1.3,0.1,2.6,0.5,3.9c0.3,0.9,0.7,1.7,1.4,2.3c0.7,0.6,1.5,1.1,2.4,1.3c1.2,0.3,2.3,0.6,3.5,0.7L705.3,171.5z"/>
<rect class="st1" width="233.9" height="409.5"/>
<circle class="st0" cx="51" cy="287" r="24.5"/>
<circle class="st0" cx="153.3" cy="233.2" r="24.6"/>
<path class="st0" d="M106.4,350.2c-17.6-3.7-32.5-15.1-40.8-31.1c-6.6,3-13.9,3.9-21,2.6c12.4,30.4,42.1,50.2,75,50
	c-4.5-5.9-7-13.1-7.2-20.5C110.4,351,108.4,350.6,106.4,350.2z"/>
<circle class="st0" cx="147.7" cy="350.4" r="24.5"/>
<path class="st0" d="M181.9,341.3c21.6-27.2,23.2-65.3,4-94.2c-2.8,6.7-7.7,12.3-13.8,16.2c10,18.9,9.2,41.6-2,59.8
	C175.9,327.7,180,334.1,181.9,341.3z"/>
<path class="st0" d="M49.1,251.8c0.6,0,1.2-0.1,1.9-0.1c2.5,0,5,0.3,7.4,0.8c4,0.8,7.8,2.4,11.2,4.5c11-15.9,28.9-25.5,48.2-25.8
	c0.4-7.2,3-14.2,7.4-19.9C94.2,209,64.6,224.8,49.1,251.8z"/>
</svg>
